<?xml version="1.0" encoding="iso-8859-1"?>
<!-- Generator: Adobe Illustrator 18.0.0, SVG Export Plug-In . SVG Version: 6.00 Build 0)  -->
<!DOCTYPE svg PUBLIC "-//W3C//DTD SVG 1.1//EN" "http://www.w3.org/Graphics/SVG/1.1/DTD/svg11.dtd">
<svg xmlns="http://www.w3.org/2000/svg" viewBox="0 0 53.56 78.79"><path d="M33.5,33.5h-19A4.53,4.53,0,0,1,10,29V10H23.09A10.41,10.41,0,0,1,33.5,20.41v10h10v-10A20.41,20.41,0,0,0,23.09,
 0H0V29A14.52,14.52,0,0,0,14.53,43.5h19V53.89a14.92,14.92,0,0,1-14.9,14.9H5.8l0,10H18.6a24.93,24.93,0,0,0,24.9-24.9V43.5H53.56v-10Z"></path> </svg>
